<?xml version="1.0" standalone="no"?>
<!DOCTYPE svg PUBLIC "-//W3C//DTD SVG 20010904//EN"
 "http://www.w3.org/TR/2001/REC-SVG-20010904/DTD/svg10.dtd">
<svg version="1.0" xmlns="http://www.w3.org/2000/svg"
 width="1280.000000pt" height="678.000000pt" viewBox="0 0 1280.000000 678.000000"
 preserveAspectRatio="xMidYMid meet">
<metadata>
Created by potrace 1.15, written by Peter Selinger 2001-2017
</metadata>
<g transform="translate(0.000000,678.000000) scale(0.100000,-0.100000)"
fill="#000000" stroke="none">
<path d="M12566 6763 c-3 -10 -1 -45 5 -78 6 -33 12 -72 13 -87 2 -16 4 -31 5
-35 0 -3 10 2 21 12 20 18 20 17 20 -9 0 -33 -32 -78 -80 -111 -43 -30 -174
-58 -228 -49 -29 4 -48 0 -84 -21 -50 -28 -61 -45 -29 -45 11 0 75 11 143 24
190 38 320 52 377 40 26 -5 53 -8 60 -6 8 3 11 54 11 168 l0 164 -27 6 c-16 3
-62 15 -105 25 -93 23 -95 23 -102 2z"/>
<path d="M8106 5922 c-7 -12 40 -79 65 -92 22 -13 106 -4 127 13 11 8 18 5 32
-13 l17 -23 14 29 c10 20 23 30 42 32 33 4 35 -8 5 -35 -59 -53 -133 -68 -249
-48 -41 6 -52 4 -100 -24 l-54 -31 50 1 c28 0 129 4 225 9 109 5 193 4 223 -2
47 -10 47 -10 47 -51 0 -23 7 -51 15 -61 8 -11 22 -43 30 -73 13 -44 22 -57
48 -69 18 -8 50 -26 72 -39 108 -64 128 -67 106 -18 l-13 28 26 -24 c31 -30
44 -21 26 16 -14 29 -15 105 -4 256 l6 79 154 -7 c106 -5 154 -4 154 3 0 18
-37 24 -109 16 -80 -7 -123 0 -115 20 7 17 -36 33 -108 39 -38 4 -69 13 -90
29 -28 19 -48 23 -135 26 -119 5 -237 -10 -312 -39 -63 -23 -102 -15 -156 32
-18 16 -36 26 -39 21z"/>
<path d="M6739 5189 c-5 -3 -15 -27 -22 -54 -17 -68 -47 -88 -137 -90 -56 -1
-79 -6 -110 -26 -22 -13 -40 -28 -40 -32 0 -11 92 2 175 24 38 11 73 19 77 19
5 0 8 -18 8 -39 0 -22 5 -43 10 -46 6 -3 10 -16 10 -29 0 -30 10 -39 27 -24
11 9 15 7 20 -10 7 -28 19 -28 27 1 l6 22 13 -23 c14 -24 27 -20 27 10 0 10 5
18 10 18 6 0 10 -4 10 -10 0 -5 5 -10 10 -10 6 0 10 10 10 22 0 30 48 128 63
128 27 0 45 -27 65 -95 22 -73 118 -252 144 -266 22 -12 58 1 58 22 0 11 5 16
13 13 10 -3 12 23 9 129 -4 114 -2 138 15 172 l18 40 135 -3 c123 -3 133 -1
116 13 -17 13 -18 15 -3 15 9 0 17 5 17 11 0 8 -29 9 -100 4 -89 -6 -103 -5
-132 13 -18 11 -46 23 -63 26 -16 4 -46 19 -66 32 -36 25 -43 25 -223 27 -103
2 -191 0 -197 -4z"/>
<path d="M4071 4366 c-10 -11 -6 -22 20 -50 36 -41 55 -44 101 -16 37 22 88
27 88 8 0 -20 -75 -77 -121 -93 -25 -9 -78 -15 -135 -15 -92 0 -94 -1 -143
-37 -28 -21 -49 -38 -48 -39 2 -2 253 39 383 62 124 23 224 11 224 -26 0 -10
13 -47 30 -82 32 -67 27 -65 125 -71 22 -2 50 -9 63 -16 13 -7 30 -10 37 -7 8
3 17 1 20 -4 14 -22 22 -7 22 43 1 125 9 201 21 205 11 3 123 -10 272 -34 l35
-6 -24 23 c-22 20 -33 22 -108 20 -78 -2 -85 0 -90 19 -3 11 -15 22 -27 25
-11 3 -58 13 -104 24 -50 11 -92 27 -106 40 -20 18 -34 21 -122 21 -54 0 -139
-5 -189 -10 -54 -7 -98 -7 -110 -2 -23 10 -89 32 -97 32 -3 0 -11 -6 -17 -14z"/>
<path d="M393 3149 c-7 -7 -45 -11 -100 -10 -49 1 -97 -1 -106 -5 -10 -3 -27
-24 -37 -44 -20 -39 -22 -40 -112 -55 -30 -5 -38 -10 -38 -27 0 -16 4 -19 23
-14 62 18 87 19 87 2 0 -10 -5 -27 -11 -39 -9 -16 -9 -22 0 -25 6 -2 11 -12
11 -22 0 -13 5 -17 20 -13 16 4 20 0 20 -17 0 -19 4 -21 25 -16 18 5 25 2 25
-8 0 -27 19 -27 33 1 14 26 15 26 21 5 12 -37 35 -20 36 26 1 9 16 35 35 57
l35 40 0 -32 c0 -17 5 -44 10 -59 6 -14 15 -58 20 -96 6 -38 20 -87 31 -110
30 -59 118 -144 149 -144 36 0 61 30 60 74 -1 52 35 243 61 321 12 36 24 72
26 80 3 11 26 13 121 9 124 -5 156 -2 147 13 -4 5 -49 9 -102 9 -91 0 -100 2
-201 46 -88 38 -118 47 -180 50 -41 2 -77 6 -80 9 -8 8 -17 6 -29 -6z"/>
<path d="M1566 2742 c-2 -4 -11 -41 -20 -82 -21 -106 -16 -242 12 -297 12 -23
27 -73 33 -111 l12 -71 -63 -70 c-72 -82 -84 -86 -223 -79 -88 4 -94 3 -137
-25 -41 -26 -42 -29 -15 -23 17 4 91 9 165 12 78 3 156 12 184 21 34 11 63 13
100 8 28 -4 87 -7 131 -7 44 1 185 2 313 3 211 2 264 8 215 23 -10 3 -55 5
-101 4 -73 -1 -85 1 -107 22 -15 14 -41 24 -69 27 -50 6 -54 12 -31 46 8 12
26 61 40 107 14 47 28 93 32 103 4 11 0 17 -11 17 -10 0 -14 5 -11 10 4 7 -3
9 -22 4 l-28 -6 35 30 c42 38 33 41 -18 7 -52 -35 -58 -31 -21 15 45 56 27 64
-22 10 -22 -25 -35 -35 -29 -23 42 88 27 100 -22 17 -18 -31 -37 -57 -41 -58
-5 -1 -24 35 -43 79 -18 44 -43 97 -54 117 -11 21 -17 44 -13 54 5 14 2 16
-20 10 -25 -6 -26 -5 -21 24 7 31 -3 39 -24 18 -9 -9 -12 -6 -12 15 0 29 -9
34 -28 15 -9 -9 -12 -6 -12 15 0 22 -5 27 -24 27 -14 0 -27 -3 -30 -8z m354
-512 c0 -14 -7 -35 -15 -46 -14 -18 -14 -18 -15 8 0 15 -5 39 -10 53 -6 15 -7
31 -4 36 10 17 44 -22 44 -51z"/>
<path d="M7067 2588 c-30 -80 -37 -123 -37 -214 0 -78 4 -100 27 -150 18 -40
28 -81 31 -132 l5 -73 -54 -51 c-30 -28 -78 -62 -108 -75 -46 -22 -63 -25
-128 -21 -69 5 -77 3 -119 -24 -50 -34 -57 -52 -16 -44 15 3 99 19 186 36 109
22 174 30 205 26 162 -21 214 -19 316 10 83 23 122 28 228 29 70 1 130 5 134
9 15 15 -14 21 -101 21 -53 0 -99 5 -107 11 -8 6 -26 14 -42 18 l-28 7 25 42
c13 23 28 65 31 92 8 56 21 84 44 102 14 10 14 12 -3 19 -16 6 -15 9 10 20
l29 14 -35 -6 c-19 -3 -44 -8 -55 -10 -17 -5 -16 -2 5 15 14 11 33 23 43 27 9
3 17 10 17 15 0 13 -5 12 -60 -16 -28 -14 -50 -22 -50 -19 0 4 17 22 38 39 49
44 34 56 -18 15 -40 -32 -57 -28 -20 5 11 10 20 25 20 34 0 9 -24 -9 -61 -44
l-60 -60 -24 29 c-37 46 -86 172 -79 201 7 28 -3 32 -32 10 -29 -22 -36 -18
-18 10 9 14 13 32 9 42 -6 16 -9 15 -29 -9 -26 -33 -42 -37 -26 -8 6 12 10 33
8 48 l-3 27 -24 -35 -23 -35 6 37 c6 30 3 39 -13 47 -27 15 -27 16 -44 -31z"/>
<path d="M4670 2378 c-6 -29 -14 -87 -17 -128 -6 -75 -6 -75 30 -118 37 -44
60 -102 51 -127 -3 -8 -31 -31 -61 -52 l-56 -38 -111 0 c-104 0 -114 -2 -159
-29 -26 -16 -46 -30 -44 -33 3 -2 40 1 83 7 154 22 327 24 403 5 65 -17 73
-17 182 -1 63 10 187 18 277 20 104 1 166 6 174 14 18 18 -39 27 -92 13 -34
-9 -59 -9 -96 -1 -69 15 -144 42 -144 53 0 4 11 23 24 40 14 18 36 64 51 102
37 99 39 105 26 105 -7 0 -9 5 -6 10 8 13 -7 13 -42 -1 l-28 -10 35 37 c35 37
29 37 -22 2 -33 -23 -36 -16 -8 19 11 14 20 32 20 41 0 9 -8 5 -21 -12 -24
-31 -36 -28 -19 3 6 12 7 21 2 21 -5 0 -30 -32 -56 -70 -26 -39 -58 -76 -72
-83 -24 -10 -29 -8 -48 15 -32 40 -76 114 -76 128 0 8 -9 10 -25 6 -23 -6 -25
-4 -19 19 7 27 -4 33 -24 13 -9 -9 -12 -5 -12 20 0 34 -8 40 -29 20 -10 -11
-12 -10 -11 2 5 31 -1 40 -24 40 -21 0 -26 -7 -36 -52z m368 -270 c14 -14 16
-54 3 -63 -8 -4 -31 22 -55 63 -10 16 36 16 52 0z"/>
<path d="M8636 1612 c-7 -12 18 -64 49 -100 27 -32 30 -33 99 -32 101 2 106 1
106 -13 0 -20 -50 -64 -94 -82 -28 -12 -63 -16 -125 -14 -75 2 -92 0 -131 -22
l-45 -24 55 -3 c30 -2 73 1 95 7 22 5 95 15 162 22 99 10 135 10 195 -1 40 -7
78 -17 84 -21 6 -5 26 -4 45 1 24 8 55 7 104 -2 39 -7 74 -12 80 -13 5 0 8 18
7 41 -5 61 10 68 144 69 75 0 117 4 125 12 20 20 -18 28 -68 15 -54 -15 -103
-15 -140 -1 -15 6 -56 15 -91 20 -34 5 -94 20 -134 34 -39 14 -89 25 -110 25
-22 0 -53 7 -70 16 -26 14 -40 14 -94 4 -34 -7 -69 -8 -76 -4 -7 5 -20 7 -29
6 -8 -1 -24 7 -34 18 -10 11 -25 20 -34 20 -9 0 -25 7 -35 15 -22 17 -33 19
-40 7z"/>
<path d="M9844 1428 c10 -71 39 -135 82 -179 33 -34 59 -48 141 -79 17 -6 42
-23 54 -36 l24 -25 -58 -56 c-57 -55 -57 -55 -110 -50 -28 3 -71 11 -94 18
-40 12 -43 12 -91 -22 -28 -19 -48 -37 -45 -42 2 -4 9 -4 15 -1 6 4 76 10 157
14 80 5 165 14 189 21 37 12 49 11 100 -6 68 -24 145 -23 231 1 63 17 94 17
317 -2 44 -4 79 -2 90 4 17 10 15 12 -19 27 -32 13 -44 14 -72 4 -30 -11 -45
-10 -112 10 -43 13 -84 25 -90 27 -21 5 -14 18 20 39 37 23 77 79 77 108 0 17
-5 19 -45 13 -25 -4 -45 -4 -45 -1 0 4 11 20 25 37 24 29 32 48 18 48 -3 0
-21 -18 -40 -40 -44 -51 -59 -51 -33 1 21 40 23 78 6 82 -5 1 -16 -19 -25 -45
-23 -67 -30 -68 -28 -3 3 81 -18 84 -27 3 -4 -34 -14 -78 -22 -97 -8 -19 -13
-36 -11 -37 2 -2 18 -5 35 -7 45 -5 49 -14 9 -21 -41 -8 -159 33 -197 69 -40
36 -224 155 -242 155 -11 0 -51 29 -112 83 -24 20 -51 37 -61 37 -15 0 -17 -6
-11 -52z"/>
<path d="M11583 1172 c-51 -50 -97 -116 -85 -119 24 -9 0 -23 -37 -23 -26 0
-44 -7 -59 -23 -12 -13 -22 -26 -22 -30 0 -12 63 -7 105 8 28 10 43 11 52 3 9
-7 17 -7 29 2 13 11 16 10 21 -8 7 -28 20 -28 29 0 6 19 7 19 16 5 13 -25 25
-21 36 12 14 41 42 46 112 22 33 -12 67 -21 76 -21 21 0 44 -61 56 -145 18
-131 103 -295 153 -295 30 0 59 40 50 69 -3 11 1 44 9 72 9 29 16 80 16 115 0
34 7 81 15 104 8 23 15 57 15 76 0 42 16 47 137 48 50 1 95 5 100 9 18 19 -26
28 -105 22 -70 -5 -88 -3 -120 14 -20 11 -54 22 -74 25 -21 2 -52 16 -70 29
-50 37 -112 47 -282 47 -136 0 -158 -2 -173 -18z"/>
<path d="M10880 514 c-10 -10 -13 -38 -12 -82 3 -73 6 -82 24 -64 10 10 15 7
24 -10 l12 -23 13 30 c12 28 13 29 16 8 5 -26 33 -32 33 -7 0 8 5 12 10 9 16
-10 11 -68 -8 -100 -31 -51 -87 -103 -117 -111 -18 -4 -56 0 -102 11 l-72 18
-42 -29 -42 -29 140 -3 c78 -1 167 1 198 6 41 7 66 6 93 -4 47 -17 93 -17 180
-2 100 17 115 10 152 -67 17 -36 35 -65 40 -65 5 0 15 9 24 21 11 16 12 28 4
51 -6 16 -8 32 -4 35 3 4 35 1 70 -5 78 -15 116 -15 116 -2 0 16 -46 30 -99
30 -64 0 -114 18 -106 38 3 9 -3 21 -15 29 -14 10 -18 21 -14 38 6 25 -15 38
-66 39 -19 1 -32 14 -60 65 -50 87 -89 113 -232 151 -64 16 -123 33 -131 36
-7 2 -20 -2 -27 -12z"/>
</g>
</svg>
