<?xml version="1.0" standalone="no"?>
<!DOCTYPE svg PUBLIC "-//W3C//DTD SVG 20010904//EN"
 "http://www.w3.org/TR/2001/REC-SVG-20010904/DTD/svg10.dtd">
<svg version="1.0" xmlns="http://www.w3.org/2000/svg"
 width="862.000000pt" height="1280.000000pt" viewBox="0 0 862.000000 1280.000000"
 preserveAspectRatio="xMidYMid meet">
<metadata>
Created by potrace 1.15, written by Peter Selinger 2001-2017
</metadata>
<g transform="translate(0.000000,1280.000000) scale(0.100000,-0.100000)"
fill="#000000" stroke="none">
<path d="M4774 12788 c-4 -6 -7 -27 -6 -47 l2 -36 -50 3 c-46 4 -53 1 -84 -30
-22 -22 -37 -49 -41 -74 -4 -21 -18 -50 -31 -64 -12 -14 -28 -38 -33 -53 -14
-36 -14 -104 0 -112 5 -4 21 -31 34 -60 34 -78 109 -124 155 -95 11 7 14 25
13 72 -2 54 1 68 27 108 33 51 38 91 15 110 -19 16 -19 56 -1 63 21 8 35 -13
45 -69 15 -80 49 -86 145 -26 24 15 42 20 48 14 5 -5 17 -36 27 -68 12 -41 24
-62 39 -69 12 -5 27 -26 34 -45 18 -51 13 -196 -8 -245 -53 -123 -109 -232
-126 -243 -10 -7 -18 -21 -18 -30 0 -10 -9 -23 -20 -30 -11 -7 -20 -19 -20
-27 0 -19 -56 -107 -75 -118 -8 -4 -15 -17 -15 -27 0 -11 -11 -27 -24 -35 -13
-9 -34 -36 -45 -59 -11 -24 -54 -95 -97 -157 -92 -138 -135 -221 -165 -319
-12 -41 -30 -83 -40 -93 -11 -10 -19 -25 -19 -34 0 -23 -40 -133 -58 -161 -16
-25 -30 -86 -39 -167 -3 -27 -9 -54 -14 -59 -5 -6 -9 -22 -9 -37 0 -39 -42
-69 -94 -69 -23 0 -52 -7 -64 -16 -14 -9 -22 -11 -22 -4 0 20 22 54 76 118 63
75 75 116 47 164 -10 18 -29 34 -40 36 -14 2 -20 8 -16 18 8 21 -71 19 -108
-3 -36 -21 -32 -39 7 -35 l29 4 -21 -24 c-12 -12 -27 -33 -33 -46 -11 -20 -14
-21 -27 -7 -9 8 -19 15 -23 15 -14 0 -31 50 -31 88 0 29 13 56 57 120 43 63
54 85 45 94 -17 17 -15 26 9 38 17 10 24 7 44 -14 40 -43 62 -35 76 28 14 64
7 100 -27 131 -27 25 -113 50 -144 42 -33 -9 -23 8 20 32 103 58 114 156 23
212 -21 13 -42 29 -46 36 -12 19 -33 16 -55 -7 -25 -27 -65 -31 -70 -7 -2 10
4 27 14 38 22 24 125 27 144 4 21 -25 37 -17 60 30 21 42 21 47 6 64 -9 10
-16 21 -16 26 0 18 -53 77 -78 86 -21 8 -31 6 -53 -11 -55 -40 -74 -16 -45 55
10 24 20 33 30 29 25 -10 38 4 25 28 -15 29 5 40 59 32 52 -8 72 7 72 53 0 40
-21 84 -52 110 -19 14 -88 131 -88 147 0 3 10 6 21 8 40 6 46 32 16 77 -38 57
-105 94 -162 89 -49 -3 -58 9 -30 46 34 44 1 100 -65 112 -47 9 -67 20 -106
60 -40 39 -91 52 -148 36 -32 -8 -44 -7 -60 4 -12 8 -45 14 -78 14 -40 0 -67
6 -92 21 -45 26 -77 20 -143 -27 -26 -19 -54 -34 -60 -34 -7 0 -13 -4 -13 -9
0 -4 -34 -36 -75 -69 -84 -69 -101 -96 -120 -189 -15 -73 -30 -94 -83 -119
-21 -9 -49 -25 -64 -35 -14 -11 -33 -16 -42 -13 -19 7 -21 -15 -3 -38 20 -27
80 -58 111 -58 32 0 164 59 214 97 18 14 44 42 57 64 37 58 152 109 249 109
89 0 285 -131 304 -203 13 -52 5 -285 -13 -367 -9 -41 -18 -97 -20 -125 -13
-153 -18 -182 -32 -204 -8 -13 -13 -35 -10 -49 3 -14 0 -34 -7 -44 -8 -15 -8
-21 3 -27 12 -8 12 -17 2 -53 -25 -88 5 -548 43 -673 9 -27 16 -64 16 -81 0
-16 4 -34 10 -40 5 -5 14 -34 20 -64 6 -29 21 -76 34 -104 13 -28 29 -71 36
-96 7 -25 28 -83 47 -130 45 -108 51 -122 62 -140 5 -8 23 -39 39 -67 l31 -53
-32 -17 c-53 -29 -474 -56 -502 -33 -8 7 -36 12 -61 12 -25 -1 -56 5 -68 13
-13 8 -25 13 -28 10 -7 -7 -136 36 -261 87 -73 30 -108 39 -132 35 -27 -4 -34
-2 -38 15 -5 19 -12 20 -126 17 -125 -4 -170 -18 -120 -38 21 -9 19 -10 -21
-11 -25 -1 -52 -3 -60 -4 -8 -2 -35 -3 -58 -4 -35 -2 -45 -6 -49 -22 -4 -16
-14 -20 -51 -20 -49 0 -109 -29 -257 -124 -44 -28 -89 -56 -100 -62 -11 -6
-28 -26 -37 -45 -10 -19 -51 -72 -93 -119 -58 -65 -89 -111 -129 -195 -30 -60
-57 -121 -61 -135 -4 -14 -16 -34 -26 -45 -10 -11 -23 -42 -29 -69 -6 -27 -16
-58 -22 -70 -31 -57 -70 -235 -75 -346 -11 -235 -8 -343 12 -375 7 -11 15 -33
18 -50 3 -16 10 -47 15 -68 l10 -38 -48 -24 c-43 -22 -50 -23 -61 -9 -7 9 -25
14 -43 12 -26 -2 -35 -11 -55 -50 -28 -57 -56 -63 -104 -22 -17 14 -38 23 -48
21 -10 -3 -26 4 -35 14 -28 31 -58 24 -89 -20 -34 -50 -30 -71 18 -94 20 -10
37 -25 37 -33 0 -24 -69 -46 -126 -38 -47 5 -52 9 -68 44 -19 43 -53 69 -99
77 -45 7 -70 -23 -71 -84 -1 -58 -22 -76 -64 -53 -16 9 -28 26 -30 40 -5 37
-29 50 -93 50 -76 0 -86 -5 -111 -54 -18 -36 -22 -38 -28 -21 -11 30 -30 42
-77 50 -40 6 -42 5 -59 -27 -17 -32 -17 -32 -27 -10 -11 25 -49 37 -144 48
-44 5 -67 3 -78 -6 -17 -14 -22 -95 -5 -85 6 3 10 -4 10 -18 0 -41 37 -75 143
-128 98 -49 107 -51 222 -62 66 -5 149 -11 185 -11 57 -1 65 1 63 17 0 12 4
16 13 13 7 -3 46 -8 86 -12 60 -5 84 -2 137 16 158 53 343 125 428 166 51 24
103 44 115 44 13 0 33 6 44 14 16 12 29 12 74 2 l55 -12 3 -169 c2 -129 -1
-173 -11 -189 -8 -11 -17 -47 -20 -80 -4 -39 -13 -66 -26 -80 -12 -12 -21 -32
-21 -44 0 -12 -9 -26 -20 -32 -11 -6 -23 -24 -27 -40 -10 -36 -295 -280 -328
-280 -12 0 -30 -9 -40 -20 -10 -11 -26 -20 -37 -20 -10 0 -26 -8 -36 -18 -22
-22 -143 -72 -173 -72 -20 0 -59 -17 -69 -30 -8 -11 -154 -86 -180 -93 -25 -7
-110 -100 -154 -167 -25 -40 -53 -216 -43 -269 10 -48 65 -109 126 -138 47
-22 56 -24 65 -11 6 8 27 18 47 22 71 13 92 56 28 56 -17 0 -28 4 -24 10 3 5
-3 17 -14 26 -19 17 -19 17 1 34 22 17 18 40 -8 40 -8 0 -14 5 -14 10 0 6 8
10 19 10 34 0 44 24 26 65 -8 21 -15 39 -15 41 0 11 22 1 37 -16 24 -28 47
-25 76 10 28 32 59 48 122 59 34 6 40 10 40 31 0 16 -8 28 -22 35 -13 5 -23
15 -23 22 0 17 10 16 31 -3 10 -9 36 -18 58 -21 88 -12 129 24 86 75 -31 37
-23 81 18 95 23 7 31 5 47 -16 24 -31 74 -44 96 -26 15 13 15 24 -1 90 -6 24
-4 27 28 33 19 4 52 18 73 33 22 14 59 35 83 46 52 23 232 194 265 252 13 22
36 81 51 130 16 50 35 98 43 107 8 10 17 41 19 70 2 29 8 62 13 73 5 11 11 45
14 75 3 30 9 84 12 119 6 55 4 66 -11 77 -14 11 -16 22 -11 58 7 44 7 44 37
36 113 -33 211 -123 259 -238 52 -125 60 -166 60 -302 -1 -94 -4 -130 -15
-144 -13 -17 -13 -22 0 -42 14 -22 9 -56 -16 -106 -5 -10 -9 -34 -9 -55 0 -20
-4 -50 -10 -67 -17 -57 -42 -141 -45 -151 -16 -73 -51 -171 -69 -193 -5 -8 -9
-27 -8 -44 1 -17 -6 -42 -18 -58 -11 -16 -25 -55 -31 -87 -6 -32 -15 -66 -20
-75 -5 -10 -9 -31 -9 -47 0 -16 -7 -45 -15 -64 -8 -20 -15 -53 -15 -74 0 -21
-6 -49 -13 -63 -11 -20 -28 -164 -29 -235 0 -67 18 -236 27 -255 7 -14 16 -48
20 -75 13 -87 54 -196 115 -305 32 -58 69 -130 83 -161 13 -30 37 -71 53 -90
48 -55 84 -107 84 -118 0 -6 28 -31 63 -55 34 -25 73 -56 87 -70 14 -13 36
-27 50 -31 14 -5 31 -16 38 -26 14 -21 42 -25 58 -9 5 5 22 6 39 1 23 -6 29
-13 27 -29 -3 -22 5 -26 41 -22 10 1 38 -8 63 -21 36 -17 50 -19 69 -11 16 8
43 8 88 1 79 -12 189 -8 194 8 2 6 -4 13 -14 15 -10 2 43 4 117 4 l135 -1 79
38 c122 58 313 197 342 248 6 11 70 80 141 152 129 132 129 132 167 232 21 55
45 107 52 116 8 8 14 27 14 41 0 14 9 54 21 89 24 76 51 206 55 269 17 277 23
404 19 410 -3 4 2 45 10 91 12 73 12 85 -2 113 -13 24 -14 50 -9 136 5 78 3
122 -8 171 -22 95 -22 588 0 650 8 24 28 98 44 164 16 66 36 137 45 158 17 41
279 396 339 460 19 20 44 37 55 37 11 0 26 9 34 21 21 30 167 112 199 112 39
0 73 -26 113 -88 67 -105 67 -165 -1 -355 -34 -95 -38 -113 -36 -195 8 -286
12 -256 -51 -401 -31 -72 -57 -138 -57 -146 0 -8 -5 -19 -12 -26 -9 -9 -15 -3
-28 26 -24 53 -65 98 -119 130 -39 23 -57 27 -117 27 -88 -1 -113 -16 -137
-81 -35 -99 -12 -225 67 -367 20 -35 36 -72 36 -83 0 -19 -52 -103 -72 -115
-5 -4 -14 -24 -18 -45 -4 -22 -15 -68 -25 -103 -9 -36 -15 -78 -11 -95 3 -17
14 -81 25 -142 10 -61 26 -128 35 -148 22 -53 23 -238 1 -256 -19 -16 -19 -29
2 -52 14 -16 15 -24 5 -52 -16 -45 -15 -59 8 -89 l20 -25 -57 -44 c-105 -79
-131 -168 -113 -384 12 -149 3 -270 -40 -541 -61 -390 -73 -514 -66 -688 3
-88 9 -204 12 -258 6 -86 5 -97 -10 -97 -24 0 -20 -31 5 -37 18 -5 20 -11 16
-40 -6 -34 -5 -35 21 -28 26 6 26 6 7 -15 -19 -20 -19 -22 -1 -68 39 -100 28
-136 -43 -148 -72 -11 -177 -47 -252 -84 -63 -32 -92 -56 -165 -135 -49 -53
-99 -114 -112 -137 -12 -23 -37 -50 -55 -61 -41 -24 -137 -118 -137 -133 0 -7
8 -14 18 -16 13 -2 8 -9 -21 -27 -59 -37 -67 -48 -67 -102 0 -46 3 -51 33 -69
18 -11 42 -32 54 -48 13 -18 44 -37 83 -52 33 -12 89 -40 124 -61 61 -36 169
-79 201 -79 9 0 48 -22 88 -49 40 -26 116 -76 169 -110 66 -42 108 -78 131
-109 19 -26 71 -90 116 -142 95 -109 130 -163 147 -232 12 -43 11 -52 -5 -81
-11 -17 -22 -43 -26 -57 -4 -14 -18 -38 -31 -53 -13 -16 -24 -38 -24 -49 0
-10 -11 -52 -24 -91 -36 -108 -40 -139 -23 -199 24 -84 27 -114 14 -127 -6 -6
-12 -35 -13 -64 -3 -101 -16 -232 -25 -263 -13 -42 -42 -68 -67 -60 -11 4 -44
41 -73 84 -71 106 -107 142 -139 142 -83 0 -88 -101 -16 -363 34 -125 39 -134
131 -253 33 -44 109 -78 167 -76 26 1 50 -3 53 -8 9 -14 115 -13 115 1 0 6 14
9 33 7 38 -3 161 53 180 83 6 10 16 19 22 19 5 0 43 16 83 37 54 27 72 42 72
57 1 21 92 104 131 118 11 4 22 14 25 23 4 8 16 15 29 15 12 0 37 11 56 25 19
13 48 31 64 38 52 25 384 383 407 439 4 11 18 18 33 18 32 0 53 11 93 48 29
27 37 29 144 35 62 3 145 13 183 21 39 8 178 22 310 31 132 8 260 20 285 25
25 5 99 14 165 20 66 6 176 22 243 36 104 21 141 33 229 79 139 73 194 111
278 192 39 38 99 92 135 122 36 29 78 69 93 87 30 35 126 104 146 104 6 0 11
5 11 11 0 5 13 15 29 20 16 6 32 17 35 24 3 8 24 24 48 36 24 12 62 34 84 50
23 16 61 33 85 38 24 5 50 19 58 30 21 27 81 51 128 51 21 0 57 10 81 22 36
20 42 28 42 54 0 46 -37 159 -76 234 -59 114 -101 150 -265 233 -344 174 -616
365 -889 622 -211 201 -247 207 -625 106 -60 -16 -151 -32 -202 -36 -123 -9
-126 -5 -84 144 17 59 31 125 31 145 0 22 9 50 20 66 43 61 52 107 81 450 16
192 31 547 25 620 -3 41 -21 152 -41 245 -25 118 -38 208 -42 293 -7 143 2
180 59 261 48 68 50 110 9 164 -31 40 -93 87 -116 87 -8 0 -17 -5 -20 -10 -11
-18 -106 -61 -128 -58 -20 3 -23 11 -28 83 -3 44 -9 103 -13 130 -6 34 -1 89
13 175 34 212 45 384 32 532 -7 72 -18 143 -25 157 -8 16 -16 83 -19 171 -7
159 -25 271 -55 340 -28 62 -35 121 -23 168 9 32 21 47 61 72 66 42 117 100
129 148 6 21 29 64 51 95 23 31 49 74 59 96 21 48 197 258 222 266 10 4 29 19
43 36 14 16 36 33 50 39 14 5 26 14 26 19 0 5 11 12 24 15 14 3 28 15 31 26 4
11 20 23 38 28 25 6 33 14 35 35 4 30 11 33 31 15 10 -11 16 -9 28 9 9 13 21
23 28 23 7 0 24 11 40 25 15 14 40 28 55 32 16 3 31 12 34 20 3 8 32 25 63 39
32 14 78 41 103 59 25 18 56 36 70 40 13 4 41 24 62 44 20 20 60 52 88 71 89
60 284 237 319 289 19 28 44 58 57 66 13 9 24 23 24 33 0 9 25 48 56 87 30 38
80 112 110 165 30 52 59 102 65 110 41 63 70 145 83 235 8 55 21 132 27 170 7
39 15 165 18 280 4 116 10 217 14 225 13 28 15 372 1 407 -7 17 -18 67 -24
110 -7 43 -18 92 -25 108 -34 78 -45 109 -45 127 0 10 -7 33 -16 49 -11 23
-21 30 -35 26 -22 -6 -26 12 -6 32 10 10 9 15 -3 24 -9 7 -28 37 -43 68 -15
30 -37 61 -49 68 -13 7 -66 64 -118 128 -52 64 -116 132 -142 152 -43 31 -48
40 -48 74 0 32 -8 47 -48 90 -26 29 -65 73 -85 99 -21 26 -79 79 -130 117 -51
39 -99 76 -107 84 -8 8 -26 18 -40 22 -35 11 -122 55 -141 71 -9 8 -42 21 -75
30 -32 8 -77 24 -100 34 -25 13 -61 20 -96 20 -31 0 -92 7 -135 15 -99 19
-164 19 -210 0 -49 -21 -74 -19 -113 8 -24 16 -39 37 -52 77 -11 33 -38 78
-68 113 -27 32 -68 93 -90 136 -45 86 -92 138 -130 143 -23 3 -25 0 -22 -33 2
-20 -4 -73 -12 -117 -16 -84 -12 -122 19 -168 12 -18 13 -33 5 -72 -5 -28 -6
-66 -3 -86 3 -20 3 -36 1 -36 -3 0 -28 38 -56 84 -29 46 -68 98 -88 114 -20
16 -46 47 -59 68 -28 46 -113 116 -175 145 -113 52 -134 60 -186 74 -125 32
-206 39 -356 27 -97 -8 -155 -9 -178 -2 -19 6 -53 10 -75 10 -47 0 -112 28
-165 70 -39 31 -74 38 -86 18z m792 -328 c15 -6 48 -32 73 -58 25 -26 59 -57
76 -68 24 -18 27 -25 17 -36 -7 -8 -15 -36 -18 -62 -8 -54 4 -70 42 -56 28 11
42 0 114 -89 44 -53 49 -62 29 -56 -13 4 -28 14 -32 21 -16 27 -52 15 -101
-35 -45 -45 -47 -50 -35 -72 13 -24 15 -30 18 -49 0 -5 19 -10 40 -10 80 0 90
-19 36 -67 -24 -22 -35 -40 -35 -59 0 -15 -6 -35 -14 -43 -21 -23 -73 -169
-86 -242 -6 -35 -20 -80 -31 -101 -28 -55 -25 -91 12 -122 18 -15 43 -26 60
-26 50 0 71 -17 64 -50 -3 -16 1 -52 9 -81 17 -57 10 -79 -26 -79 -28 0 -76
-27 -89 -51 -19 -37 0 -70 102 -175 67 -69 97 -107 93 -118 -9 -24 5 -39 24
-24 14 12 15 8 8 -31 -5 -35 -16 -53 -48 -83 -39 -36 -40 -40 -36 -85 3 -33
19 -72 51 -128 52 -88 58 -124 27 -170 -24 -36 -26 -102 -5 -131 8 -12 30 -29
50 -38 19 -9 35 -23 35 -30 0 -11 -91 -100 -218 -212 -69 -60 -193 -214 -217
-269 -13 -27 -44 -103 -70 -167 -26 -65 -51 -118 -56 -118 -4 0 -11 9 -14 20
-11 35 -56 80 -104 105 -25 13 -68 47 -96 75 -82 84 -139 121 -198 129 -67 8
-70 24 -15 91 24 29 51 64 60 79 25 37 23 107 -5 156 -45 79 -133 78 -217 -4
-56 -54 -69 -55 -50 -6 7 17 28 35 67 53 162 77 186 119 129 230 -9 17 -25 36
-35 42 -31 16 -102 11 -150 -10 -53 -25 -54 -25 -41 0 6 11 53 52 105 91 110
82 125 100 125 152 0 89 -55 133 -152 122 l-61 -7 6 28 c13 69 23 98 35 102 6
2 12 -1 12 -6 0 -20 33 -22 54 -3 12 10 40 24 62 30 61 16 71 32 55 89 -17 64
-34 88 -68 95 -16 3 -40 14 -53 25 l-24 19 18 55 17 55 39 -19 c51 -25 101
-16 135 24 39 46 30 93 -31 161 -23 25 -32 43 -26 49 5 5 45 17 89 27 92 20
143 51 143 86 0 38 -56 94 -100 101 -36 6 -38 8 -28 30 8 18 27 29 67 40 83
24 101 38 101 79 0 20 -10 56 -22 81 -21 46 -21 47 -2 61 32 24 124 47 137 34
17 -17 23 -14 46 25 19 31 19 37 6 50 -8 9 -15 19 -15 24 0 5 -14 24 -30 42
-43 47 -36 62 30 66 65 3 80 18 80 79 0 49 -39 103 -77 106 -33 2 -29 15 24
65 39 38 47 52 51 92 4 42 1 49 -28 78 -38 39 -88 43 -128 11 l-27 -20 -17 21
c-23 29 -23 67 0 73 35 9 232 7 258 -3z m1127 -563 c6 -17 89 -57 119 -57 13
0 47 -16 74 -35 43 -31 56 -35 104 -34 30 0 66 -1 79 -3 19 -2 28 4 38 22 11
23 55 44 67 33 3 -3 -1 -14 -7 -24 -9 -16 -9 -21 1 -28 8 -4 16 -26 19 -49 7
-50 -5 -58 -103 -64 -70 -5 -101 -17 -241 -92 -49 -27 -54 -28 -76 -13 -17 11
-34 44 -56 109 -18 51 -43 112 -57 135 -29 51 -29 54 -3 87 23 29 34 33 42 13z
m-386 -109 c41 -45 46 -65 22 -89 l-21 -21 -19 53 c-28 83 -23 101 18 57z m63
-253 c16 -52 30 -78 55 -101 l34 -31 -11 -61 c-14 -76 -2 -110 42 -118 40 -9
58 -30 42 -52 -37 -52 -54 -102 -67 -195 -31 -211 -43 -264 -76 -329 -11 -21
-24 -38 -30 -38 -20 0 -40 74 -59 214 -11 77 -29 170 -40 204 -11 35 -17 68
-14 73 3 6 7 67 8 137 3 100 8 138 24 180 12 31 24 92 28 144 l7 91 18 -24
c11 -13 28 -55 39 -94z m780 -209 c6 -8 28 -20 48 -27 20 -6 53 -23 72 -38 54
-42 75 -51 124 -51 42 0 46 -2 46 -24 0 -14 -5 -37 -10 -51 l-10 -26 -30 21
c-16 12 -74 36 -127 55 -138 46 -133 44 -154 89 -17 38 -17 42 -2 54 22 16 28
15 43 -2z m-326 -501 c8 -32 48 -42 90 -23 26 13 36 13 63 2 17 -8 34 -22 38
-33 16 -52 97 -78 143 -46 21 15 22 15 28 -26 8 -47 32 -74 74 -83 19 -3 35
-16 45 -36 9 -17 25 -40 36 -51 24 -24 9 -24 -39 0 -20 10 -80 34 -132 52 -82
29 -107 34 -185 33 -90 0 -136 -10 -243 -53 -60 -24 -62 -24 -62 -12 0 5 9 13
20 16 11 4 27 19 35 35 37 72 -5 176 -52 129 -9 -9 -16 -8 -28 5 -9 9 -23 16
-31 16 -9 0 -12 5 -8 11 4 8 28 10 71 6 55 -5 66 -4 83 13 11 11 20 28 20 38
0 38 25 43 34 7z m646 -324 c0 -6 -17 -7 -37 -4 -52 8 -54 13 -5 13 23 0 42
-4 42 -9z m165 -92 c15 -28 15 -33 -4 -73 -12 -23 -21 -50 -21 -59 0 -9 -6
-17 -12 -17 -15 0 -138 57 -138 64 0 3 16 2 35 -1 25 -4 35 -2 37 8 0 8 2 19
3 24 2 6 3 18 4 28 1 15 54 57 73 57 4 0 15 -14 23 -31z m-607 -262 c2 -34 -3
-61 -18 -90 l-20 -42 20 -14 c29 -20 25 -37 -22 -81 -39 -38 -40 -41 -25 -58
19 -20 14 -81 -7 -94 -8 -5 -7 -14 2 -29 11 -18 11 -24 -3 -39 -19 -21 -84
-34 -100 -20 -15 13 -88 -22 -109 -52 -11 -16 -16 -46 -16 -100 0 -96 -7 -113
-72 -186 -29 -32 -61 -67 -70 -78 -9 -10 -24 -25 -32 -32 -12 -10 -14 -18 -6
-32 16 -29 13 -45 -5 -30 -22 18 -42 -3 -52 -53 -8 -39 -11 -42 -44 -45 -58
-5 -64 14 -30 90 21 47 39 71 64 87 55 34 68 79 56 193 -13 106 -6 201 16 235
10 15 29 25 56 29 49 8 99 52 99 87 0 14 -9 46 -20 72 -23 55 -26 83 -4 42 19
-35 48 -46 99 -38 37 6 42 10 72 71 17 36 30 72 27 81 -3 10 5 20 21 27 32 15
65 69 65 108 0 37 7 46 35 42 16 -2 21 -12 23 -51z m416 -39 c8 -13 17 -34 21
-48 5 -21 0 -28 -25 -43 -59 -35 -93 6 -50 60 11 14 20 32 20 39 0 21 18 17
34 -8z m-179 -318 c8 -13 -3 -50 -15 -50 -12 0 -23 37 -15 50 3 5 10 10 15 10
5 0 12 -5 15 -10z m-4599 -138 c6 -4 14 -15 17 -25 6 -15 13 -17 36 -12 20 4
38 1 55 -10 14 -9 30 -14 36 -10 9 6 129 -35 255 -87 77 -32 314 -76 449 -83
90 -6 145 -3 216 8 52 9 131 19 175 22 75 6 82 5 121 -20 38 -26 124 -137 124
-161 0 -6 11 -23 25 -39 14 -15 29 -40 32 -56 3 -17 14 -34 24 -40 10 -5 24
-27 30 -49 7 -23 20 -42 31 -45 10 -4 18 -10 18 -14 0 -5 32 -53 70 -107 39
-54 70 -103 70 -110 0 -7 16 -26 35 -41 19 -16 48 -49 64 -74 15 -24 57 -75
93 -114 114 -124 121 -145 56 -162 -24 -7 -59 -26 -78 -43 -19 -17 -96 -77
-170 -133 -122 -93 -140 -110 -198 -197 -35 -52 -70 -99 -77 -103 -8 -4 -25
-29 -38 -56 -14 -26 -36 -59 -50 -73 -14 -14 -29 -42 -32 -61 -4 -20 -16 -43
-26 -53 -10 -9 -19 -27 -19 -39 0 -25 -28 -111 -45 -140 -42 -67 -92 -423 -82
-576 4 -56 2 -90 -5 -97 -8 -8 -8 -15 1 -26 10 -12 9 -21 -3 -45 -20 -39 -20
-54 2 -74 16 -14 17 -52 20 -474 1 -292 -2 -492 -9 -553 -12 -104 -50 -266
-72 -308 -83 -159 -117 -214 -156 -257 -26 -27 -63 -71 -84 -96 -67 -83 -296
-223 -453 -277 -176 -60 -397 -52 -554 22 -63 29 -174 129 -198 178 -20 40
-58 53 -49 17 5 -20 4 -21 -9 -7 -8 8 -33 59 -55 113 -21 55 -48 108 -59 120
-26 27 -112 221 -143 323 -27 85 -46 294 -29 315 5 7 12 44 16 84 5 64 43 223
91 383 9 30 21 71 25 90 9 36 41 145 85 289 14 47 25 100 25 119 0 37 15 98
35 147 7 17 10 46 8 66 -3 21 1 49 10 65 11 24 13 55 6 170 -15 251 -52 391
-134 499 -29 38 -61 77 -71 87 -38 33 -186 128 -201 128 -8 0 -31 18 -50 40
-40 44 -66 50 -85 20 -20 -31 -36 -24 -44 18 -3 20 -15 72 -26 116 l-19 78 21
15 c23 16 17 37 -10 30 -20 -5 -24 12 -36 158 -11 141 33 386 89 501 14 27 42
87 63 134 21 47 46 92 55 100 9 8 20 25 23 37 4 12 29 41 57 63 27 23 49 47
49 53 0 15 41 57 56 57 7 0 18 9 24 21 7 11 27 27 46 35 19 8 34 18 34 24 0
29 228 140 289 140 30 0 57 22 47 39 -3 5 1 12 10 15 23 9 46 7 40 -3 -3 -5 8
-14 24 -21 24 -10 33 -10 45 0 9 7 14 19 11 27 -6 14 12 17 30 5z m2628 -737
c21 -53 21 -52 -13 -53 -25 0 -31 5 -45 42 -21 54 -21 53 13 53 25 0 32 -6 45
-42z m-4716 -2777 c-7 -13 -14 -25 -15 -27 -2 -2 -9 2 -18 9 -25 21 -18 40 15
40 28 0 29 -1 18 -22z"/>
</g>
</svg>
