<?xml version="1.0" standalone="no"?>
<!DOCTYPE svg PUBLIC "-//W3C//DTD SVG 20010904//EN"
 "http://www.w3.org/TR/2001/REC-SVG-20010904/DTD/svg10.dtd">
<svg version="1.0" xmlns="http://www.w3.org/2000/svg"
 width="1280.000000pt" height="849.000000pt" viewBox="0 0 1280.000000 849.000000"
 preserveAspectRatio="xMidYMid meet">
<metadata>
Created by potrace 1.15, written by Peter Selinger 2001-2017
</metadata>
<g transform="translate(0.000000,849.000000) scale(0.100000,-0.100000)"
fill="#000000" stroke="none">
<path d="M6425 7277 c-39 -34 -65 -75 -65 -104 0 -9 -17 -42 -39 -73 -49 -70
-56 -111 -35 -193 l17 -63 -27 -56 c-25 -51 -26 -61 -20 -136 7 -79 6 -81 -23
-119 -50 -64 -54 -77 -52 -182 1 -80 -2 -103 -17 -126 -50 -76 -68 -138 -69
-230 -1 -69 -6 -100 -22 -135 -28 -58 -46 -162 -38 -211 6 -33 3 -44 -19 -69
-14 -17 -27 -45 -30 -63 -15 -102 -15 -129 4 -189 25 -78 25 -85 1 -98 -27
-14 -43 -5 -70 38 -13 21 -34 45 -46 53 -13 8 -89 58 -169 112 -81 53 -148 97
-151 97 -4 0 -32 19 -180 125 -167 120 -166 120 -280 120 -99 0 -100 0 -103
-25 -2 -13 -15 -37 -28 -53 -29 -35 -30 -56 -4 -107 20 -40 27 -118 11 -136
-20 -21 -20 -60 -1 -92 24 -39 26 -84 4 -117 -21 -32 -12 -71 32 -132 29 -41
34 -54 29 -84 -5 -30 0 -48 25 -93 31 -54 31 -58 20 -105 -13 -55 -3 -111 31
-169 16 -27 17 -40 9 -75 -15 -67 -13 -75 40 -131 36 -38 50 -61 50 -82 0 -17
15 -49 37 -79 33 -44 36 -56 36 -112 0 -44 -5 -68 -16 -81 -12 -13 -16 -37
-16 -87 0 -39 0 -81 0 -95 0 -14 0 -36 0 -49 1 -14 -6 -30 -15 -37 -9 -6 -16
-22 -16 -35 0 -13 -7 -33 -16 -44 -9 -13 -12 -30 -8 -48 4 -20 1 -34 -12 -48
-17 -19 -24 -72 -24 -182 0 -15 -6 -38 -15 -50 -8 -12 -15 -42 -15 -67 0 -25
-5 -51 -11 -57 -9 -9 -9 -24 -1 -55 5 -24 8 -59 5 -78 -3 -22 4 -61 16 -98 12
-35 19 -73 15 -86 -3 -13 1 -37 9 -52 8 -16 17 -50 20 -77 l7 -47 -50 -31
c-43 -26 -51 -36 -56 -70 -6 -33 -14 -43 -55 -69 -31 -19 -49 -37 -49 -49 0
-20 25 -51 41 -51 5 0 9 -6 9 -14 0 -8 10 -22 22 -30 16 -11 19 -19 12 -26
-14 -14 -118 -39 -162 -40 -50 0 -309 -66 -465 -117 l-139 -46 -101 7 c-56 4
-133 12 -172 17 -38 6 -121 10 -183 10 -100 0 -116 -3 -144 -22 -23 -17 -52
-24 -112 -29 -74 -6 -126 -23 -126 -42 0 -4 -14 -21 -30 -38 -17 -17 -30 -37
-30 -45 0 -8 -12 -21 -27 -29 -16 -8 -38 -28 -50 -44 -26 -35 -51 -158 -35
-174 21 -21 161 -27 582 -28 398 0 550 -7 579 -25 16 -9 13 -45 -4 -52 -9 -3
-37 3 -63 13 -40 16 -75 19 -237 19 -198 0 -237 -7 -277 -47 -15 -15 -28 -17
-76 -12 -39 4 -62 3 -66 -5 -4 -6 -16 -11 -27 -11 -28 0 -23 -25 8 -39 27 -12
27 -13 8 -27 -38 -28 3 -41 158 -48 78 -4 174 -11 212 -16 39 -5 155 -14 259
-19 l189 -9 93 44 c92 44 128 53 139 35 3 -6 27 -13 53 -16 62 -9 112 -24 112
-36 0 -5 32 -9 72 -9 39 0 85 -4 102 -10 17 -5 96 -21 176 -35 80 -14 186 -35
235 -45 92 -20 382 -47 560 -52 55 -2 231 5 390 14 348 21 516 24 610 10 46
-7 164 -8 350 -2 341 10 385 19 590 115 120 57 176 73 265 79 41 3 111 12 155
21 44 9 142 21 219 27 163 13 183 9 366 -79 89 -43 280 -113 306 -113 2 0 4
14 4 30 0 28 -36 97 -65 126 -52 52 -149 121 -222 159 -48 25 -100 55 -115 67
-14 13 -49 71 -78 129 -37 76 -69 126 -115 176 -56 62 -165 156 -220 191 -50
31 -270 133 -360 167 -194 72 -228 86 -290 124 -71 42 -190 95 -251 111 -34 8
-45 17 -60 48 -16 32 -18 66 -18 267 -1 225 0 232 26 306 69 196 135 305 337
557 165 206 167 210 191 282 30 87 69 283 70 345 0 28 -9 85 -20 129 -14 56
-20 112 -20 197 0 115 -1 120 -45 238 -25 66 -45 123 -45 126 0 3 -14 35 -32
72 -44 95 -105 194 -133 218 -13 11 -42 65 -64 120 -74 186 -93 228 -135 294
-23 36 -55 89 -70 116 -16 28 -43 68 -60 90 -18 22 -53 74 -78 115 -71 114
-406 490 -560 628 -41 37 -98 95 -127 130 -54 65 -188 185 -231 207 -56 28
-76 27 -115 -8z"/>
</g>
</svg>
