<?xml version="1.0" encoding="utf-8"?>
<!-- Generator: Adobe Illustrator 25.2.1, SVG Export Plug-In . SVG Version: 6.00 Build 0)  -->
<svg version="1.1" id="Calque_1" xmlns="http://www.w3.org/2000/svg" xmlns:xlink="http://www.w3.org/1999/xlink" x="0px" y="0px"
	 viewBox="0 0 432 432" style="enable-background:new 0 0 432 432;" xml:space="preserve">
<style type="text/css">
	.st0{fill:#C7B299;}
	.st1{fill:#8CC63F;}
	.st2{fill:#EC9C76;}
	.st3{fill:#63C9C9;}
	.st4{fill:#5884A4;}
	.st5{fill:#D8B89A;}
	.st6{fill:#8AC7D0;}
	.st7{fill:#C1272D;}
	.st8{fill:#42AAD3;}
	.st9{fill:#638FAF;}
	.st10{fill:#C2C59F;}
	.st11{fill:#9FA07F;}
	.st12{fill:#333333;}
	.st13{fill:#959672;}
	.st14{fill:#EFD450;}
	.st15{fill:#4D4D4D;}
	.st16{fill:#81A549;}
	.st17{fill:#998675;}
	.st18{fill:#736357;}
	.st19{fill:#BFD699;}
</style>
<g>
	<g>
		<path d="M276.84,133.11c-0.04,3.76,0.45,7.27,3.47,9.89c1.02,0.88,2.16,1.65,3.32,2.35c1.88,1.13,3.81,2.15,5.73,3.21
			c2.07,1.14,4.04,2.42,5.83,3.97c4.19,3.61,6.42,8.18,6.84,13.68c0.16,2.1-0.01,4.18-0.31,6.25c-0.08,0.52-0.37,1.07-0.72,1.48
			c-0.49,0.58-1.22,0.67-1.93,0.46c-0.84-0.25-1.32-0.88-1.46-1.73c-0.11-0.69-0.14-1.39-0.21-2.08c-0.23-2.35-0.56-4.68-1.42-6.89
			c-1.32-3.38-3.52-6-6.78-7.63c-1.57-0.79-3.21-1.42-4.82-2.13c-1.76-0.78-3.53-1.54-5.25-2.38c-1.8-0.88-3.44-2-4.85-3.44
			c-0.09-0.09-0.2-0.15-0.48-0.35c0.15,0.56,0.24,0.93,0.35,1.3c1.33,4.44,3.65,8.37,6.2,12.19c1.21,1.82,2.47,3.63,3.52,5.54
			c3.11,5.64,4.64,11.69,4.33,18.15c-0.17,3.57-1.03,7.01-2.2,10.38c-0.11,0.31-0.28,0.61-0.48,0.86c-0.58,0.71-1.36,0.96-2.23,0.7
			c-0.84-0.25-1.36-0.86-1.44-1.73c-0.06-0.66-0.02-1.33,0.05-1.98c0.33-3.14,0.46-6.28,0.18-9.44c-0.48-5.39-2.07-10.39-5.12-14.89
			c-0.76-1.12-1.55-2.24-2.37-3.32c-3.18-4.24-6.76-8.18-9.61-13.01c-0.1,0.59-0.18,0.95-0.21,1.32c-0.36,3.48-0.21,6.96,0.06,10.44
			c0.36,4.6,0.82,9.19,1.06,13.79c0.34,6.26-0.76,12.35-2.46,18.36c-0.92,3.25-1.81,6.52-2.16,9.9c-0.19,1.78-0.23,3.57-0.35,5.36
			c-0.05,0.73-0.06,1.46-0.17,2.18c-0.17,1.14-0.92,1.88-1.93,1.97c-0.94,0.09-1.84-0.49-2.19-1.54c-0.72-2.18-1.28-4.39-1.49-6.68
			c-0.38-4.33,0.37-8.52,1.48-12.68c0.71-2.66,1.44-5.32,1.94-8.02c0.8-4.31,0.68-8.66-0.13-12.97c-0.57-3.06-1.34-6.09-1.91-9.15
			c-0.36-1.92-0.54-3.87-0.8-5.81c-0.01-0.09-0.04-0.18-0.09-0.35c-0.14,0.09-0.25,0.14-0.32,0.23c-2.22,2.86-4.47,5.69-6.64,8.58
			c-3.05,4.08-4.99,8.65-5.78,13.71c-0.48,3.06-0.59,6.14-0.37,9.23c0.09,1.22,0.21,2.45,0.3,3.67c0.03,0.36,0.04,0.73-0.01,1.09
			c-0.11,0.88-0.71,1.59-1.52,1.77c-0.89,0.2-1.65-0.06-2.2-0.79c-0.22-0.29-0.37-0.63-0.49-0.97c-1.44-4.17-2.35-8.44-2.17-12.87
			c0.23-5.49,1.66-10.67,4.35-15.47c1.08-1.93,2.35-3.77,3.58-5.62c2.27-3.44,4.41-6.95,5.74-10.88c0.26-0.77,0.5-1.56,0.59-2.42
			c-0.12,0.09-0.26,0.17-0.36,0.28c-1.38,1.42-3,2.53-4.77,3.38c-2.06,0.99-4.17,1.87-6.26,2.79c-0.94,0.41-1.89,0.8-2.83,1.22
			c-4.45,2-7.25,5.42-8.36,10.12c-0.5,2.09-0.65,4.25-0.97,6.38c-0.05,0.36-0.09,0.73-0.21,1.07c-0.33,0.9-1.08,1.39-1.99,1.36
			c-0.86-0.03-1.58-0.54-1.84-1.42c-0.17-0.6-0.23-1.23-0.31-1.86c-0.35-2.86-0.27-5.69,0.4-8.5c0.97-4.08,3.13-7.42,6.28-10.15
			c1.79-1.55,3.76-2.83,5.83-3.97c1.71-0.95,3.44-1.87,5.13-2.85c1.06-0.62,2.09-1.29,3.09-2c2.29-1.62,3.57-3.88,4.05-6.61
			c0.24-1.37,0.35-2.76,0.22-4.24c-1.27-0.22-2.54-0.41-3.8-0.65c-2.75-0.52-5.4-1.33-7.91-2.6c-1.94-0.98-3.69-2.23-5.13-3.87
			c-2.55-2.9-3.2-6.18-1.91-9.82c0.9-2.53,2.32-4.77,4.08-6.78c4.29-4.9,9.59-8.33,15.67-10.58c6.05-2.23,12.27-3.04,18.68-2.23
			c9.23,1.16,17.23,4.86,23.83,11.47c2.08,2.08,3.74,4.48,4.94,7.18c1.14,2.56,1.39,5.16,0.34,7.83c-0.52,1.32-1.35,2.43-2.33,3.44
			c-2.4,2.47-5.39,3.93-8.61,4.98c-2.72,0.88-5.54,1.31-8.35,1.79C277.21,133.02,277.11,133.05,276.84,133.11z"/>
		<path d="M161.16,182.19c-0.23,0.1-0.38,0.13-0.5,0.21c-2.74,1.86-5.5,3.68-8.21,5.59c-2.71,1.91-5.22,4.07-7.27,6.72
			c-2.03,2.63-3.5,5.51-4.15,8.79c-0.42,2.08-0.29,4.16-0.03,6.24c0.06,0.51,0.14,1.02,0.14,1.53c-0.02,1.2-0.79,2.06-1.9,2.19
			c-1.07,0.12-2.11-0.59-2.32-1.75c-0.24-1.35-0.4-2.73-0.49-4.1c-0.29-4.82,1.16-9.17,3.67-13.22c2.06-3.32,4.75-6.09,7.84-8.45
			c2.1-1.6,4.3-3.06,6.46-4.57c1.93-1.36,3.87-2.71,5.81-4.07c0.16-0.11,0.29-0.26,0.46-0.42c-0.46-2.9-1.29-5.68-2.41-8.38
			c-1.44-3.47-3.26-6.73-5.18-9.95c-1.52-2.54-3.06-5.06-4.5-7.63c-1.98-3.52-3.49-7.23-4.18-11.24
			c-0.87-5.11-0.45-10.12,1.09-15.06c0.13-0.41,0.27-0.81,0.42-1.26c-0.7-0.41-1.38-0.44-2.09-0.25c-1.11,0.28-2.21,0.58-3.31,0.87
			c-2.12,0.56-3.97,0.06-5.59-1.39c-1.19-1.07-2.08-2.36-2.77-3.79c-1.8-3.71-2.44-7.63-2.19-11.72c0.33-5.46,1.92-10.6,4.05-15.59
			c3.1-7.27,7.43-13.69,13.3-19.04c4.21-3.84,9.09-6.43,14.73-7.25c8.79-1.28,16.85,0.49,23.78,6.34c4.3,3.62,7.78,7.93,10.66,12.72
			c3.46,5.75,5.92,11.91,7.21,18.51c0.97,5.01,0.87,9.95-1.08,14.76c-0.73,1.8-1.67,3.48-3.09,4.85c-1.7,1.63-3.67,2.23-5.97,1.59
			c-0.75-0.21-1.51-0.4-2.42-0.44c0.23,0.27,0.47,0.54,0.7,0.81c4.25,4.99,7.5,10.52,9.13,16.9c1.88,7.35,1.39,14.61-1.03,21.76
			c-1.21,3.59-2.8,7.02-4.57,10.37c-1.69,3.2-3.49,6.36-5.12,9.59c-1.29,2.56-2.5,5.18-3.59,7.84c-1.58,3.88-1.93,7.93-1.37,12.07
			c0.04,0.27,0.06,0.55,0.04,0.82c-0.07,1.13-0.85,1.97-1.9,2.08c-1.08,0.11-2.06-0.49-2.3-1.6c-0.25-1.15-0.4-2.33-0.44-3.51
			c-0.16-3.78,0.41-7.46,1.72-11.02c1.29-3.53,2.97-6.86,4.72-10.17c2.25-4.25,4.51-8.49,6.63-12.8c1.67-3.4,2.86-7,3.48-10.76
			c1.15-6.97,0.27-13.66-2.91-20c-1.9-3.79-4.24-7.29-7.28-10.27c-0.36-0.36-0.75-0.69-1.19-1.09c-3.07,2.1-6.44,3.11-10.31,3.04
			c0.29,0.69,0.46,1.21,0.72,1.67c1.18,2.09,2.33,4.2,3.58,6.25c1.5,2.45,3.13,4.83,4.64,7.27c1.52,2.45,2.79,5.02,3.73,7.76
			c1.74,5.02,1.64,10.01-0.46,14.88c-0.93,2.16-2.07,4.25-3.27,6.28c-1.56,2.65-3.27,5.21-4.91,7.81c-1.9,3-3.61,6.1-4.85,9.44
			c-3.68,9.89-1.59,18.74,6.16,25.92c0.92,0.86,1.9,1.66,2.84,2.5c1.25,1.11,1.45,2.4,0.56,3.4c-0.79,0.88-2.24,0.92-3.39-0.07
			c-2.17-1.89-4.35-3.77-6.17-6.01c-4.14-5.08-6.31-10.87-6.14-17.45c0.09-3.54,0.95-6.93,2.22-10.23c1.31-3.4,3.05-6.57,4.98-9.65
			c1.63-2.6,3.32-5.18,4.91-7.8c0.94-1.55,1.81-3.14,2.6-4.77c2.2-4.54,2.32-9.16,0.42-13.85c-1.01-2.49-2.28-4.85-3.71-7.11
			c-1.2-1.9-2.44-3.77-3.67-5.65c-2.29-3.51-4.42-7.09-5.61-11.15c-0.08-0.29-0.37-0.61-0.64-0.74c-1.7-0.8-3.46-1.04-5.26-0.31
			c-0.87,0.35-1.75,0.69-2.74,1.07c0.14,0.76,0.26,1.49,0.42,2.21c0.49,2.12,1.27,4.14,2.2,6.1c1.8,3.81,3.65,7.6,5.37,11.44
			c1.52,3.38,2.64,6.91,3.25,10.59c1.2,7.3-0.81,13.64-5.72,19.1c-0.5,0.56-1.01,1.11-1.58,1.59c-0.5,0.43-0.64,0.89-0.6,1.55
			c0.19,2.92,0.16,5.83-0.31,8.72c-0.57,3.52-1.66,6.9-3.1,10.14c-1.57,3.53-3.27,6.99-4.92,10.48c-1.59,3.35-3.19,6.7-4,10.34
			c-0.45,2.03-0.74,4.1-1.1,6.16c-0.09,0.5-0.12,1.02-0.22,1.52c-0.25,1.25-1.18,2.03-2.3,1.94c-1.18-0.09-2.05-1.05-1.96-2.37
			c0.11-1.53,0.34-3.05,0.57-4.57c0.67-4.44,2.12-8.63,4.04-12.67c1.49-3.13,3.03-6.23,4.5-9.38c1.69-3.61,3.26-7.27,3.97-11.22
			c0.34-1.89,0.41-3.83,0.6-5.75C161.23,182.73,161.18,182.51,161.16,182.19z M164.57,173.34c3.71-4.21,5.3-8.98,4.59-14.46
			c-0.44-3.42-1.45-6.7-2.85-9.83c-1.66-3.74-3.44-7.43-5.2-11.12c-1.34-2.82-2.47-5.7-3.07-8.78c-0.1-0.49-0.19-0.98-0.31-1.54
			c-2.8-0.12-5.42-0.73-7.86-2.12c-0.14,0.35-0.24,0.56-0.31,0.78c-1.35,4.41-1.64,8.88-0.73,13.42c0.68,3.4,2.06,6.53,3.77,9.51
			c1.49,2.6,3.04,5.15,4.58,7.72c1.92,3.22,3.74,6.49,5.12,9.97C163.12,168.95,163.78,171.09,164.57,173.34z"/>
		<path d="M205.43,278.23c-1.95,5.94-5.8,10.62-9.84,15.18c-1.51,1.71-3.03,3.42-4.48,5.19c-4.02,4.9-4.88,10.34-2.77,16.3
			c1.05,2.97,2.63,5.65,4.52,8.13c2.34,3.07,4.81,6.04,7.17,9.1c1.78,2.31,3.5,4.66,5.2,7.03c0.9,1.26,1.49,2.68,1.75,4.23
			c0.21,1.28,0.14,2.52-0.57,3.65c-0.99,1.59-2.65,2.05-4.3,1.17c-1.29-0.68-2.26-1.73-3-2.95c-0.79-1.32-1.54-2.66-2.17-4.06
			c-2.21-4.85-4.86-9.45-7.6-14.02c-1.54-2.57-3.01-5.18-4.34-7.86c-1.62-3.25-2.45-6.72-2.29-10.39c0.14-3.33,1.09-6.43,2.55-9.39
			c1.51-3.07,3.51-5.79,5.8-8.31c1.64-1.81,3.35-3.56,5.01-5.35c1.64-1.77,3.17-3.62,4.29-5.77c0.49-0.94,0.95-1.89,1.07-3.18
			c-0.8,0.28-1.47,0.55-2.16,0.76c-0.78,0.24-1.57,0.54-2.38,0.63c-1.33,0.14-2.39-0.47-3.05-1.63c-0.62-1.1-0.45-2.2,0.21-3.24
			c0.23-0.37,0.49-0.72,0.76-1.06c0.64-0.81,0.63-1.66,0.18-2.54c-0.74-1.44-1.5-2.86-2.21-4.31c-1.84-3.76-3.45-7.6-4.25-11.74
			c-0.83-4.32-0.77-8.62,0.45-12.87c1.85-6.45,6.15-10.79,12.02-13.7c3.53-1.75,7.31-2.67,11.25-2.92
			c6.75-0.44,13.39,0.12,19.84,2.23c2.59,0.84,5.05,1.98,7.27,3.61c4.76,3.49,7.33,8.24,8.18,13.99c0.8,5.43,0.03,10.7-2.04,15.75
			c-1.3,3.16-2.8,6.25-4.35,9.31c-0.71,1.4-0.88,2.56,0.26,3.75c0.24,0.25,0.42,0.57,0.58,0.89c1.03,2.08-0.35,4.42-2.67,4.5
			c-0.65,0.02-1.32-0.17-1.97-0.31c-0.37-0.08-0.73-0.26-1.15-0.41c-0.18,1.48,0.02,2.84,0.29,4.19c0.7,3.49,2.05,6.71,4.25,9.52
			c1.35,1.74,2.81,3.4,4.23,5.09c1.94,2.33,3.94,4.61,5.82,6.99c2.7,3.42,3.9,7.41,4.35,11.69c0.47,4.42-0.41,8.63-1.81,12.77
			c-1.01,2.98-2.14,5.93-3.24,8.88c-1.91,5.09-3.05,10.33-3.22,15.79c-0.04,1.33-0.28,2.66-0.5,3.98c-0.09,0.53-0.31,1.06-0.59,1.53
			c-0.76,1.31-2.09,1.55-3.14,0.44c-0.63-0.66-1.14-1.52-1.49-2.37c-0.81-1.98-0.83-4.07-0.59-6.17c0.37-3.29,1.39-6.39,2.84-9.34
			c1.29-2.61,2.74-5.14,4.06-7.74c1.12-2.21,2.26-4.42,3.21-6.71c1.81-4.3,1.77-8.65,0.05-13.01c-1.13-2.88-2.53-5.62-4.45-8.03
			c-2.33-2.93-4.8-5.74-7.21-8.61c-1.04-1.24-2.11-2.45-3.07-3.75c-3.02-4.06-4.49-8.63-4.29-13.71c0.02-0.39,0-0.77,0-1.15
			c-1.52,0.21-2.98,0.42-4.61,0.64c-0.04,0.29-0.11,0.7-0.14,1.12c-0.34,4.01,0.44,7.87,1.81,11.59c1.43,3.88,3.07,7.68,4.67,11.49
			c1.45,3.45,2.92,6.9,3.8,10.55c1.98,8.25,1.62,16.42-1.01,24.47c-0.84,2.58-2.14,4.91-4.12,6.81c-0.42,0.41-0.88,0.81-1.38,1.1
			c-1.75,1.01-3.73,0.08-3.99-1.93c-0.11-0.83-0.04-1.76,0.22-2.55c0.5-1.53,1.15-3.02,1.83-4.48c1.37-2.97,2.64-5.98,3.37-9.19
			c1.49-6.53,0.95-12.94-1.32-19.19c-1.07-2.95-2.48-5.79-3.76-8.67c-0.97-2.2-2.08-4.34-2.96-6.57c-1.93-4.91-2.33-9.94-0.78-15.05
			c0.04-0.14,0.04-0.3,0.07-0.53c-1.02-0.09-1.72,0.57-2.55,0.84c-0.86,0.27-1.73,0.5-2.77,0.79c0.16,0.98,0.28,2.03,0.51,3.04
			c0.68,3.08,1.44,6.14,2.11,9.21c0.52,2.39,0.86,4.81,0.88,7.26c0.03,3.6-0.65,7.05-2.07,10.35c-0.33,0.78-0.34,1.46-0.14,2.27
			c1.37,5.32,2.15,10.73,2.47,16.21c0.5,8.64-0.36,17.16-2.2,25.59c-0.6,2.74-1.48,5.39-2.62,7.95c-0.66,1.48-1.48,2.88-2.58,4.08
			c-0.47,0.52-0.99,1.03-1.57,1.42c-1.99,1.33-4.32,0.7-5.4-1.43c-0.87-1.71-0.93-3.56-0.74-5.43c0.28-2.73,1.15-5.31,2.16-7.84
			c1.38-3.48,2.85-6.92,4.23-10.4c1.61-4.08,2.81-8.27,3.31-12.65c0.49-4.26,0.34-8.5-0.38-12.72c-0.03-0.18-0.13-0.36-0.23-0.65
			c-0.33,0.37-0.59,0.65-0.84,0.94c-1.75,2.05-3.73,3.85-6,5.31c-1.43,0.93-2.95,1.66-4.67,1.91c-0.39,0.06-0.79,0.1-1.17,0.06
			c-2.99-0.27-4.4-2.7-3.15-5.43c0.5-1.1,1.26-2.02,2.21-2.74c1.25-0.96,2.58-1.81,3.86-2.72c2.12-1.5,4.23-3.01,6.34-4.54
			c0.38-0.27,0.7-0.62,1.1-0.99c-0.53-1.19-1.02-2.35-1.56-3.48c-1.01-2.09-2.07-4.16-3.07-6.26c-1.73-3.61-2.47-7.41-1.72-11.38
			c0.38-2.04,0.99-4.05,1.52-6.06c0.14-0.53,0.35-1.04,0.56-1.64C207.93,278.34,206.74,278.29,205.43,278.23z M213.34,277.57
			c-0.15,0.13-0.23,0.17-0.26,0.24c-0.11,0.29-0.22,0.59-0.31,0.89c-1.43,4.38-1.15,8.78-0.13,13.18c0.8,3.47,2.24,6.72,3.62,9.98
			c0.11,0.26,0.26,0.51,0.48,0.94c0.23-0.59,0.4-0.98,0.54-1.38c1.07-3.06,1.16-6.19,0.55-9.33c-0.37-1.93-0.92-3.83-1.42-5.73
			c-0.7-2.62-1.28-5.26-1.37-8C214.41,278.07,213.85,277.81,213.34,277.57z"/>
	</g>
	<g>
		<circle class="st6" cx="226.14" cy="79.49" r="11.15"/>
		<circle class="st6" cx="168.19" cy="259.51" r="12.13"/>
		<circle class="st6" cx="142.7" cy="283.87" r="6.31"/>
		<circle class="st6" cx="214.99" cy="196.57" r="6.59"/>
		<circle class="st6" cx="264.58" cy="238.25" r="9.33"/>
		<circle class="st6" cx="263.99" cy="276.01" r="9.92"/>
		<circle class="st6" cx="278.61" cy="213.85" r="5.33"/>
	</g>
</g>
</svg>
