<?xml version="1.0" standalone="no"?>
<!DOCTYPE svg PUBLIC "-//W3C//DTD SVG 20010904//EN"
 "http://www.w3.org/TR/2001/REC-SVG-20010904/DTD/svg10.dtd">
<svg version="1.0" xmlns="http://www.w3.org/2000/svg"
 width="1280.000000pt" height="810.000000pt" viewBox="0 0 1280.000000 810.000000"
 preserveAspectRatio="xMidYMid meet">
<metadata>
Created by potrace 1.15, written by Peter Selinger 2001-2017
</metadata>
<g transform="translate(0.000000,810.000000) scale(0.100000,-0.100000)"
fill="#000000" stroke="none">
<path d="M4565 6293 c-22 -2 -80 -12 -130 -23 -138 -31 -263 -52 -334 -57 -36
-3 -75 -12 -88 -20 -29 -19 -79 -31 -178 -43 -44 -5 -102 -14 -130 -20 -27 -6
-108 -14 -180 -18 -71 -4 -140 -13 -152 -20 -12 -7 -42 -12 -67 -12 -52 0
-140 -21 -185 -45 -18 -9 -65 -24 -105 -35 -40 -10 -121 -43 -182 -73 -60 -30
-123 -58 -139 -61 -17 -4 -43 -17 -57 -29 l-27 -22 33 -68 c18 -37 40 -75 50
-86 15 -16 15 -19 1 -31 -12 -10 -21 -8 -50 15 -20 14 -46 43 -59 63 -46 73
-81 82 -167 47 -75 -30 -88 -46 -89 -110 0 -43 6 -57 39 -101 21 -28 62 -105
91 -170 53 -121 60 -135 102 -214 50 -92 139 -233 186 -293 39 -50 233 -244
306 -305 52 -45 86 -83 103 -115 27 -54 165 -192 238 -238 25 -16 47 -29 50
-29 2 0 77 -46 167 -102 276 -172 319 -197 435 -253 62 -30 116 -55 120 -55 5
0 64 -22 132 -49 142 -55 126 -36 218 -251 158 -366 290 -607 403 -735 48 -54
100 -122 100 -130 0 -10 41 -58 116 -137 35 -37 64 -71 64 -75 0 -13 163 -155
230 -199 70 -47 166 -86 202 -82 31 3 32 5 54 88 30 117 37 132 79 166 33 27
38 37 43 84 9 99 -15 245 -70 415 -56 176 -64 192 -125 279 -44 61 -53 86 -30
86 12 -1 84 -25 140 -48 16 -7 38 -12 51 -12 12 0 26 -4 31 -9 6 -5 51 -21
100 -35 50 -15 158 -49 240 -76 221 -71 288 -90 327 -90 20 0 46 -9 60 -19 13
-11 44 -24 68 -31 25 -6 59 -20 75 -30 17 -10 57 -25 89 -35 66 -18 109 -57
219 -196 83 -105 245 -268 367 -370 98 -81 242 -229 283 -288 9 -14 38 -53 62
-86 25 -33 63 -85 84 -115 77 -110 157 -173 284 -224 61 -24 77 -26 178 -24
l111 3 21 50 c21 53 28 208 13 271 -6 22 -3 41 9 64 14 26 18 65 19 187 2 143
1 156 -20 193 -22 39 -57 131 -68 181 -6 27 -24 41 -158 119 -36 22 -58 41
-58 52 0 10 7 18 15 18 17 0 103 -26 280 -86 224 -75 293 -101 323 -120 139
-89 195 -149 266 -287 30 -60 80 -143 110 -185 30 -42 72 -101 93 -130 21 -30
54 -73 73 -97 19 -23 69 -87 110 -140 123 -160 162 -207 220 -265 221 -221
317 -286 442 -296 l74 -7 27 32 c15 18 27 41 27 52 0 11 4 27 9 37 5 9 14 35
20 57 38 141 51 187 69 240 12 33 32 121 47 197 27 145 102 381 137 432 12 17
44 60 73 96 28 36 59 83 69 104 10 22 34 65 53 95 82 127 102 161 163 271 23
41 59 98 81 127 31 41 39 61 39 94 0 46 26 157 42 176 5 7 12 34 15 60 2 26 8
64 14 83 13 49 11 106 -3 117 -7 6 -40 13 -73 17 -33 3 -94 10 -135 15 -45 6
-97 6 -130 0 -30 -5 -83 -9 -116 -9 -34 0 -99 -7 -146 -15 -46 -8 -99 -15
-118 -16 -19 -1 -62 -8 -96 -15 -33 -8 -112 -19 -175 -25 -63 -6 -145 -15
-184 -20 -72 -10 -236 -23 -405 -35 -82 -5 -104 -3 -160 16 -36 12 -92 38
-125 58 -114 70 -238 176 -232 197 6 18 67 17 130 -4 91 -29 254 -34 304 -9
113 55 259 216 278 305 22 106 -125 518 -253 706 -16 25 -36 61 -43 82 -20 55
-133 165 -213 208 -143 75 -265 101 -596 127 -177 14 -270 25 -355 43 -38 9
-99 18 -135 21 -121 10 -169 26 -184 62 -6 14 -29 27 -62 38 -30 9 -56 21 -59
26 -4 6 -13 10 -22 10 -9 0 -33 15 -54 33 -70 59 -93 74 -223 141 -70 37 -149
82 -175 100 -25 18 -86 55 -136 82 -49 28 -112 62 -140 77 -79 44 -148 76
-175 81 -14 3 -68 37 -120 76 -52 39 -120 80 -150 91 -30 11 -59 24 -65 29 -5
4 -44 22 -85 40 -41 18 -87 41 -101 51 -37 26 -179 85 -225 94 -21 3 -58 17
-84 30 -54 27 -179 70 -235 81 -22 4 -92 24 -155 45 -64 22 -135 39 -160 39
-25 0 -73 9 -108 20 -34 11 -86 22 -115 25 -28 2 -77 9 -107 15 -90 16 -421
31 -515 23z"/>
</g>
</svg>
