<svg id="visual" viewBox="0 0 900 300" width="900" height="300" xmlns="http://www.w3.org/2000/svg" xmlns:xlink="http://www.w3.org/1999/xlink" version="1.1"><rect x="0" y="0" width="900" height="300" fill="#043a70"></rect><path d="M0 186L25 181.8C50 177.7 100 169.3 150 175.7C200 182 250 203 300 205C350 207 400 190 450 190.2C500 190.3 550 207.7 600 208C650 208.3 700 191.7 750 177.2C800 162.7 850 150.3 875 144.2L900 138L900 0L875 0C850 0 800 0 750 0C700 0 650 0 600 0C550 0 500 0 450 0C400 0 350 0 300 0C250 0 200 0 150 0C100 0 50 0 25 0L0 0Z" fill="#205386"></path><path d="M0 117L25 122.5C50 128 100 139 150 144.2C200 149.3 250 148.7 300 146C350 143.3 400 138.7 450 133.5C500 128.3 550 122.7 600 123.8C650 125 700 133 750 133.5C800 134 850 127 875 123.5L900 120L900 0L875 0C850 0 800 0 750 0C700 0 650 0 600 0C550 0 500 0 450 0C400 0 350 0 300 0C250 0 200 0 150 0C100 0 50 0 25 0L0 0Z" fill="#1f69ad"></path><path d="M0 87L25 92.5C50 98 100 109 150 116.8C200 124.7 250 129.3 300 121.2C350 113 400 92 450 85.7C500 79.3 550 87.7 600 89.2C650 90.7 700 85.3 750 80.2C800 75 850 70 875 67.5L900 65L900 0L875 0C850 0 800 0 750 0C700 0 650 0 600 0C550 0 500 0 450 0C400 0 350 0 300 0C250 0 200 0 150 0C100 0 50 0 25 0L0 0Z" fill="#1881d5"></path><path d="M0 83L25 76.7C50 70.3 100 57.7 150 56.2C200 54.7 250 64.3 300 62.2C350 60 400 46 450 45C500 44 550 56 600 63.7C650 71.3 700 74.7 750 71.5C800 68.3 850 58.7 875 53.8L900 49L900 0L875 0C850 0 800 0 750 0C700 0 650 0 600 0C550 0 500 0 450 0C400 0 350 0 300 0C250 0 200 0 150 0C100 0 50 0 25 0L0 0Z" fill="#0099ff"></path></svg>