<svg id="visual" viewBox="0 0 900 300" width="900" height="300" xmlns="http://www.w3.org/2000/svg" xmlns:xlink="http://www.w3.org/1999/xlink" version="1.1"><rect x="0" y="0" width="900" height="300" fill="#0099ff"></rect><path d="M0 176L25 184.3C50 192.7 100 209.3 150 219.5C200 229.7 250 233.3 300 233.2C350 233 400 229 450 216.5C500 204 550 183 600 177.8C650 172.7 700 183.3 750 179C800 174.7 850 155.3 875 145.7L900 136L900 0L875 0C850 0 800 0 750 0C700 0 650 0 600 0C550 0 500 0 450 0C400 0 350 0 300 0C250 0 200 0 150 0C100 0 50 0 25 0L0 0Z" fill="#35aeff"></path><path d="M0 99L25 108.8C50 118.7 100 138.3 150 146.2C200 154 250 150 300 148.7C350 147.3 400 148.7 450 150.7C500 152.7 550 155.3 600 154.2C650 153 700 148 750 143C800 138 850 133 875 130.5L900 128L900 0L875 0C850 0 800 0 750 0C700 0 650 0 600 0C550 0 500 0 450 0C400 0 350 0 300 0C250 0 200 0 150 0C100 0 50 0 25 0L0 0Z" fill="#90c8ff"></path><path d="M0 66L25 71.2C50 76.3 100 86.7 150 93.8C200 101 250 105 300 111.2C350 117.3 400 125.7 450 125.8C500 126 550 118 600 115.5C650 113 700 116 750 112.5C800 109 850 99 875 94L900 89L900 0L875 0C850 0 800 0 750 0C700 0 650 0 600 0C550 0 500 0 450 0C400 0 350 0 300 0C250 0 200 0 150 0C100 0 50 0 25 0L0 0Z" fill="#cbe3ff"></path><path d="M0 64L25 65.3C50 66.7 100 69.3 150 73.5C200 77.7 250 83.3 300 80.7C350 78 400 67 450 57.8C500 48.7 550 41.3 600 42C650 42.7 700 51.3 750 51.7C800 52 850 44 875 40L900 36L900 0L875 0C850 0 800 0 750 0C700 0 650 0 600 0C550 0 500 0 450 0C400 0 350 0 300 0C250 0 200 0 150 0C100 0 50 0 25 0L0 0Z" fill="#ffffff"></path></svg>